<?xml version="1.0" encoding="UTF-8"?>
<!-- Generator: visioncortex VTracer 0.6.12 -->
<svg version="1.1" xmlns="http://www.w3.org/2000/svg" width="225" height="108">
<path d="M0,0 L5,0 L6,77 L7,94 L11,105 L12,108 L0,108 Z " fill="#000000" transform="translate(0,0)"/>
<path d="M0,0 L10,0 L11,89 L14,96 L20,103 L29,107 L29,108 L11,108 L4,100 L1,93 L0,87 Z " fill="#000000" transform="translate(13,0)"/>
<path d="M0,0 L32,0 L34,14 L35,19 L33,22 L33,28 L35,33 L40,35 L45,37 L57,39 L63,44 L64,51 L68,52 L69,58 L74,58 L74,52 L77,51 L82,52 L82,58 L87,59 L87,53 L89,51 L95,51 L96,52 L96,58 L100,57 L102,51 L105,50 L107,43 L112,39 L127,36 L133,32 L136,27 L135,21 L134,16 L136,0 L166,0 L166,88 L162,96 L154,101 L151,102 L16,102 L7,98 L2,92 L0,88 Z M50,42 L49,46 L52,61 L56,70 L63,78 L71,83 L77,85 L93,85 L104,81 L111,75 L116,67 L119,55 L120,43 L116,42 L111,47 L108,62 L105,66 L102,67 L101,62 L96,62 L95,68 L88,69 L87,63 L82,63 L81,68 L75,68 L73,62 L68,63 L68,67 L63,65 L61,59 L59,49 L57,44 Z " fill="#000000" transform="translate(29,0)"/>
<path d="M0,0 L9,0 L10,8 L9,90 L5,101 L-1,108 L-21,108 L-17,106 L-9,101 L-3,94 L-1,88 Z " fill="#000000" transform="translate(202,0)"/>
<path d="M0,0 L6,0 L6,108 L-7,108 L-2,96 L-1,91 Z " fill="#000000" transform="translate(219,0)"/>
<path d="M0,0 L7,0 L15,4 L19,10 L18,18 L13,24 L6,27 L-1,27 L-7,24 L-12,18 L-12,9 L-8,3 Z " fill="#000000" transform="translate(87,2)"/>
<path d="M0,0 L9,0 L15,3 L19,8 L20,10 L20,17 L16,23 L11,26 L0,26 L-6,22 L-10,17 L-11,9 L-7,3 Z " fill="#000000" transform="translate(132,2)"/>
<path d="M0,0 L4,2 L10,11 L11,18 L10,19 L5,19 L1,15 L-2,19 L-7,19 L-8,18 L-7,11 L-2,2 Z " fill="#000000" transform="translate(112,22)"/>
</svg>
