<?xml version="1.0" encoding="UTF-8"?>
<!-- Generator: visioncortex VTracer 0.6.12 -->
<svg version="1.1" xmlns="http://www.w3.org/2000/svg" width="218" height="60">
<path d="M0,0 L6,0 L6,60 L0,60 Z " fill="#000000" transform="translate(0,0)"/>
<path d="M0,0 L10,0 L10,60 L0,60 Z " fill="#000000" transform="translate(13,0)"/>
<path d="M0,0 L3,0 L3,60 L0,60 Z " fill="#000000" transform="translate(29,0)"/>
<path d="M0,0 L16,0 L32,7 L41,14 L49,23 L53,31 L55,38 L55,55 L54,60 L51,60 L41,47 L31,31 L26,29 L35,45 L44,59 L44,60 L33,60 L23,56 L15,50 L7,41 L2,30 L0,21 Z " fill="#000000" transform="translate(53,0)"/>
<path d="M0,0 L22,0 L22,19 L15,13 L7,6 L0,1 Z " fill="#000000" transform="translate(87,0)"/>
<path d="M0,0 L21,0 L16,5 L7,12 L1,19 L0,19 Z " fill="#000000" transform="translate(114,0)"/>
<path d="M0,0 L16,0 L16,19 L13,33 L8,43 L2,50 L-9,57 L-16,60 L-29,60 L-25,53 L-17,42 L-10,31 L-9,27 L-13,29 L-24,44 L-33,56 L-37,59 L-39,49 L-39,37 L-36,27 L-29,17 L-20,9 L-6,2 Z " fill="#000000" transform="translate(153,0)"/>
<path d="M0,0 L3,0 L3,60 L0,60 Z " fill="#000000" transform="translate(187,0)"/>
<path d="M0,0 L9,0 L9,60 L0,60 Z " fill="#000000" transform="translate(196,0)"/>
<path d="M0,0 L6,0 L6,60 L0,60 Z " fill="#000000" transform="translate(212,0)"/>
</svg>
