<?xml version="1.0" encoding="UTF-8"?>
<!-- Generator: visioncortex VTracer 0.6.12 -->
<svg version="1.1" xmlns="http://www.w3.org/2000/svg" width="215" height="142">
<path d="M0,0 L35,0 L32,2 L22,7 L13,15 L8,25 L7,29 L6,142 L0,142 Z " fill="#000000" transform="translate(0,0)"/>
<path d="M0,0 L33,0 L33,142 L27,142 L27,37 L25,24 L20,14 L13,7 L3,2 Z " fill="#000000" transform="translate(182,0)"/>
<path d="M0,0 L126,0 L139,3 L148,9 L156,18 L159,28 L159,137 L150,137 L149,29 L146,21 L141,16 L135,12 L129,10 L74,9 L0,10 L-10,14 L-15,18 L-20,27 L-21,137 L-31,137 L-31,31 L-28,20 L-22,12 L-14,5 L-5,1 Z " fill="#000000" transform="translate(43,5)"/>
<path d="M0,0 L123,0 L132,3 L137,8 L140,13 L141,18 L141,41 L140,122 L121,122 L120,117 L3,117 L2,122 L-18,122 L-18,15 L-14,7 L-7,2 Z M61,15 L59,16 L58,26 L51,22 L47,24 L46,27 L56,35 L58,36 L59,52 L44,44 L43,33 L41,29 L35,29 L34,39 L26,35 L22,36 L20,41 L29,46 L25,49 L21,52 L23,56 L26,57 L37,53 L43,54 L53,60 L40,67 L35,66 L27,63 L22,64 L21,68 L26,71 L29,73 L20,78 L23,84 L28,83 L34,80 L35,90 L41,90 L43,84 L43,75 L48,73 L58,68 L58,83 L47,92 L47,95 L49,97 L54,96 L59,93 L59,104 L67,104 L67,93 L74,97 L78,97 L80,93 L72,86 L67,84 L67,67 L82,75 L84,90 L89,91 L91,90 L91,80 L100,84 L104,83 L106,78 L97,73 L105,68 L103,63 L96,64 L86,67 L73,60 L77,57 L85,53 L92,54 L102,57 L104,54 L104,51 L96,47 L106,41 L105,37 L103,35 L98,36 L91,40 L91,30 L89,28 L85,29 L83,32 L82,44 L67,52 L68,36 L79,28 L78,23 L74,22 L68,26 L67,16 Z " fill="#000000" transform="translate(46,20)"/>
</svg>
