<?xml version="1.0" encoding="UTF-8"?>
<!-- Generator: visioncortex VTracer 0.6.12 -->
<svg version="1.1" xmlns="http://www.w3.org/2000/svg" width="167" height="172">
<path d="M0,0 L7,0 L7,7 L0,1 Z " fill="#000000" transform="translate(160,0)"/>
<path d="M0,0 L124,0 L134,3 L140,8 L144,17 L144,153 L140,163 L135,167 L127,170 L1,170 L-9,167 L-15,162 L-19,154 L-19,15 L-16,9 L-9,3 Z M1,3 L-8,6 L-13,10 L-16,17 L-16,152 L-12,160 L-5,165 L-1,166 L127,166 L134,163 L140,156 L141,151 L141,30 L140,15 L136,9 L131,5 L128,4 Z " fill="#000000" transform="translate(21,1)"/>
<path d="M0,0 L4,1 L5,2 L5,32 L4,37 L-2,35 L-2,9 L-1,1 Z " fill="#000000" transform="translate(75,14)"/>
<path d="M0,0 L5,0 L6,31 L1,35 L-1,35 L-1,1 Z " fill="#000000" transform="translate(85,14)"/>
<path d="M0,0 L4,1 L4,28 L-1,30 L-1,1 Z " fill="#000000" transform="translate(96,14)"/>
<path d="M0,0 L5,0 L5,33 L-1,32 L-1,1 Z " fill="#000000" transform="translate(64,15)"/>
<path d="M0,0 L2,0 L3,20 L-13,29 L-15,29 L-15,9 Z " fill="#000000" transform="translate(99,45)"/>
<path d="M0,0 L2,1 L2,3 L11,5 L17,8 L17,28 L6,25 L-1,23 Z " fill="#000000" transform="translate(63,48)"/>
<path d="M0,0 L1,0 L2,6 L2,22 L-15,31 L-17,31 L-17,10 Z " fill="#000000" transform="translate(101,69)"/>
<path d="M0,0 L10,3 L18,6 L18,27 L13,26 L-1,21 Z " fill="#000000" transform="translate(62,75)"/>
<path d="M0,0 L2,0 L3,21 L1,28 L-3,33 L-14,40 L-16,40 L-16,65 L-17,66 L-22,66 L-23,40 L-28,39 L-37,32 L-41,27 L-41,5 L-31,8 L-22,11 L-21,38 L-18,38 L-18,11 L-13,7 Z " fill="#000000" transform="translate(102,95)"/>
<path d="M0,0 L7,6 L7,7 L0,7 Z " fill="#000000" transform="translate(0,165)"/>
<path d="M0,0 L1,0 L1,7 L-6,7 Z " fill="#000000" transform="translate(166,165)"/>
</svg>
