<?xml version="1.0" encoding="UTF-8"?>
<!-- Generator: visioncortex VTracer 0.6.12 -->
<svg version="1.1" xmlns="http://www.w3.org/2000/svg" width="230" height="230">
<path d="M0,0 L230,0 L230,230 L0,230 Z M3,2 L2,3 L2,227 L3,228 L227,228 L228,227 L228,3 L227,2 Z " fill="#000000" transform="translate(0,0)"/>
<path d="M0,0 L138,0 L152,4 L163,11 L170,19 L174,28 L175,32 L176,45 L176,117 L175,182 L171,193 L165,201 L157,208 L145,213 L140,214 L4,214 L-9,210 L-18,204 L-25,197 L-31,186 L-33,177 L-33,36 L-30,22 L-23,12 L-14,5 L-4,1 Z M13,6 L-3,8 L-13,13 L-21,22 L-25,30 L-26,35 L-26,175 L-22,188 L-15,197 L-6,203 L3,206 L10,207 L136,207 L149,203 L158,197 L164,189 L168,179 L169,172 L169,39 L166,27 L160,19 L152,12 L142,8 L138,7 L116,6 Z " fill="#000000" transform="translate(44,8)"/>
<path d="M0,0 L130,0 L140,3 L150,12 L153,18 L154,23 L154,158 L151,168 L143,177 L133,181 L115,182 L69,182 L0,181 L-9,177 L-17,170 L-21,160 L-21,20 L-17,10 L-10,4 Z M4,6 L-6,9 L-13,16 L-15,21 L-15,160 L-11,168 L-3,174 L4,176 L131,176 L139,173 L144,169 L148,160 L148,23 L144,14 L136,8 L129,6 Z " fill="#000000" transform="translate(49,24)"/>
<path d="M0,0 L132,0 L140,5 L143,9 L144,12 L145,146 L142,155 L137,160 L131,162 L3,162 L-5,158 L-11,151 L-12,147 L-12,14 L-8,5 Z M58,9 L55,17 L56,20 L56,41 L56,44 L60,46 L63,45 L66,42 L69,44 L74,41 L75,36 L79,39 L83,37 L83,10 L79,9 L75,12 L72,9 L67,10 L64,12 L61,9 Z M47,10 L46,11 L46,41 L46,44 L45,53 L45,66 L49,69 L52,68 L62,71 L66,67 L69,69 L85,60 L84,41 L80,41 L67,49 L64,52 L60,49 L56,47 L51,45 L53,41 L53,20 L53,16 L51,10 Z M83,65 L67,74 L65,78 L58,74 L49,70 L45,70 L44,90 L48,93 L58,96 L61,98 L66,93 L69,95 L83,88 L86,86 L86,69 L84,65 Z M84,90 L70,98 L64,103 L60,99 L54,98 L45,95 L44,96 L44,117 L51,125 L61,132 L63,155 L68,156 L69,155 L70,131 L83,122 L87,116 L88,108 L87,91 Z " fill="#000000" transform="translate(49,34)"/>
</svg>
