<?xml version="1.0" encoding="UTF-8"?>
<!-- Generator: visioncortex VTracer 0.6.12 -->
<svg version="1.1" xmlns="http://www.w3.org/2000/svg" width="218" height="181">
<path d="M0,0 L33,0 L30,2 L20,7 L12,15 L7,25 L6,32 L6,153 L8,169 L13,179 L14,181 L0,181 Z " fill="#000000" transform="translate(0,0)"/>
<path d="M0,0 L34,0 L34,181 L21,181 L27,168 L28,163 L28,34 L25,22 L19,12 L8,4 L0,1 Z " fill="#000000" transform="translate(184,0)"/>
<path d="M0,0 L123,0 L135,2 L147,8 L152,12 L157,20 L159,26 L160,34 L160,151 L158,161 L153,170 L147,176 L-21,176 L-29,167 L-32,160 L-33,153 L-33,27 L-29,16 L-23,9 L-13,3 L-7,1 Z M2,9 L-10,12 L-18,18 L-23,26 L-24,31 L-24,93 L-23,158 L-18,166 L-10,172 L-2,175 L129,175 L138,171 L146,164 L149,159 L150,155 L150,29 L146,20 L138,13 L130,10 L123,9 Z " fill="#000000" transform="translate(46,5)"/>
<path d="M0,0 L128,0 L138,4 L144,12 L145,15 L145,138 L141,146 L133,152 L125,154 L13,154 L0,153 L-7,150 L-13,145 L-16,139 L-16,14 L-11,6 L-6,2 Z M72,3 L1,4 L-7,8 L-11,13 L-12,15 L-12,138 L-7,146 L-1,149 L3,150 L126,150 L135,146 L140,140 L141,138 L141,21 L139,12 L134,7 L128,4 Z " fill="#000000" transform="translate(45,21)"/>
<path d="M0,0 L11,0 L20,3 L28,9 L40,26 L51,25 L49,34 L43,54 L36,53 L14,45 L13,40 L19,38 L8,18 L5,13 L5,11 L2,14 L-6,30 L-16,49 L-22,48 L-36,41 L-41,36 L-33,26 L-26,17 L-20,10 L-10,3 Z " fill="#000000" transform="translate(111,33)"/>
<path d="M0,0 L7,0 L14,3 L21,8 L23,11 L22,18 L11,32 L-2,50 L-4,55 L21,59 L37,60 L43,61 L45,70 L45,82 L35,82 L6,78 L-6,73 L-12,69 L-20,60 L-23,50 L-22,37 L-17,25 L-7,9 Z M3,12 L4,16 L10,17 L11,13 L9,12 Z " fill="#000000" transform="translate(64,78)"/>
<path d="M0,0 L2,0 L12,18 L15,28 L15,36 L11,49 L4,58 L-4,64 L-14,69 L-28,74 L-34,81 L-38,79 L-51,66 L-52,62 L-45,54 L-36,45 L-33,41 L-31,41 L-30,38 L-25,37 L-23,42 L-23,47 L-7,40 L-9,35 L-19,20 L-23,13 L-23,10 L-2,1 Z " fill="#000000" transform="translate(163,85)"/>
<path d="M0,0 L2,2 L3,10 L3,26 L-2,36 L-12,44 L-24,47 L-37,48 L-33,41 L-24,29 L-20,22 L-26,27 L-35,38 L-42,47 L-45,48 L-46,46 L-46,24 L-40,15 L-33,9 L-24,5 Z " fill="#000000" transform="translate(129,87)"/>
</svg>
