<?xml version="1.0" encoding="UTF-8"?>
<!-- Generator: visioncortex VTracer 0.6.12 -->
<svg version="1.1" xmlns="http://www.w3.org/2000/svg" width="216" height="190">
<path d="M0,0 L36,0 L33,2 L21,8 L16,12 L10,21 L7,32 L7,168 L9,181 L13,190 L0,190 Z " fill="#000000" transform="translate(0,0)"/>
<path d="M0,0 L35,0 L35,190 L22,190 L27,177 L28,172 L28,33 L25,22 L19,13 L11,6 L0,1 Z " fill="#000000" transform="translate(181,0)"/>
<path d="M0,0 L123,0 L135,3 L143,7 L150,13 L155,21 L158,33 L158,159 L156,171 L151,180 L146,185 L128,185 L131,183 L140,178 L145,171 L147,166 L148,160 L148,31 L144,21 L139,16 L133,12 L121,9 L4,9 L-8,12 L-16,18 L-21,26 L-22,29 L-22,162 L-19,172 L-15,178 L-6,183 L-4,185 L-21,185 L-28,176 L-31,167 L-32,161 L-32,28 L-28,18 L-22,10 L-11,3 Z " fill="#000000" transform="translate(45,5)"/>
<path d="M0,0 L105,0 L121,1 L131,6 L136,12 L137,15 L137,150 L133,158 L128,162 L121,165 L116,166 L6,166 L-6,165 L-14,161 L-20,154 L-21,151 L-22,140 L-22,17 L-18,8 L-9,2 Z M59,17 L47,39 L37,53 L28,65 L20,79 L16,91 L16,107 L20,118 L27,127 L34,133 L47,139 L51,140 L67,140 L79,136 L89,129 L96,120 L100,111 L101,106 L101,91 L97,80 L92,70 L81,54 L72,41 L62,22 L60,17 Z " fill="#000000" transform="translate(50,19)"/>
<path d="M0,0 L3,0 L3,15 L8,27 L16,34 L28,40 L36,43 L34,45 L21,45 L10,41 L4,37 L-2,30 L-6,19 L-6,11 L-2,2 Z " fill="#000000" transform="translate(80,103)"/>
</svg>
