<?xml version="1.0" encoding="UTF-8"?>
<!-- Generator: visioncortex VTracer 0.6.12 -->
<svg version="1.1" xmlns="http://www.w3.org/2000/svg" width="214" height="15">
<path d="M0,0 L3,0 L10,15 L0,15 Z " fill="#000000" transform="translate(0,0)"/>
<path d="M0,0 L10,0 L14,5 L14,7 L18,9 L27,13 L32,14 L32,15 L10,15 L3,7 Z " fill="#000000" transform="translate(11,0)"/>
<path d="M0,0 L5,1 L12,4 L144,4 L152,0 L156,1 L151,6 L146,8 L137,9 L42,9 L10,8 L2,3 Z " fill="#000000" transform="translate(29,0)"/>
<path d="M0,0 L10,0 L8,6 L1,14 L0,15 L-23,15 L-23,14 L-14,12 L-4,6 Z " fill="#000000" transform="translate(192,0)"/>
<path d="M0,0 L4,0 L4,15 L-7,15 L-1,4 Z " fill="#000000" transform="translate(210,0)"/>
</svg>
