<?xml version="1.0" encoding="UTF-8"?>
<!-- Generator: visioncortex VTracer 0.6.12 -->
<svg version="1.1" xmlns="http://www.w3.org/2000/svg" width="223" height="129">
<path d="M0,0 L6,0 L7,129 L0,129 Z " fill="#000000" transform="translate(0,0)"/>
<path d="M0,0 L9,0 L9,129 L0,129 L-1,117 L-1,3 Z " fill="#000000" transform="translate(14,0)"/>
<path d="M0,0 L3,0 L3,129 L0,129 L-1,16 L-1,2 Z " fill="#000000" transform="translate(29,0)"/>
<path d="M0,0 L3,0 L4,111 L3,129 L0,129 Z " fill="#000000" transform="translate(191,0)"/>
<path d="M0,0 L9,0 L10,7 L10,118 L9,129 L0,129 Z " fill="#000000" transform="translate(200,0)"/>
<path d="M0,0 L6,0 L6,129 L-1,129 Z " fill="#000000" transform="translate(217,0)"/>
<path d="M0,0 L93,0 L96,2 L96,27 L93,30 L97,49 L98,67 L98,88 L97,98 L97,111 L101,120 L101,123 L93,122 L91,121 L2,121 L-1,123 L-7,123 L-8,120 L-4,112 L-3,111 L-3,100 L-5,74 L-4,49 L-2,36 L0,28 L-4,26 L-4,3 Z M12,8 L8,12 L8,18 L11,21 L81,21 L85,17 L84,10 L81,8 Z " fill="#000000" transform="translate(66,3)"/>
</svg>
