<?xml version="1.0" encoding="UTF-8"?>
<!-- Generator: visioncortex VTracer 0.6.12 -->
<svg version="1.1" xmlns="http://www.w3.org/2000/svg" width="214" height="14">
<path d="M0,0 L4,1 L9,14 L0,14 Z " fill="#000000" transform="translate(0,0)"/>
<path d="M0,0 L10,0 L15,7 L23,12 L26,14 L9,14 L2,6 Z " fill="#000000" transform="translate(12,0)"/>
<path d="M0,0 L5,0 L9,3 L12,4 L142,4 L150,0 L154,1 L148,6 L143,8 L11,8 L3,4 Z " fill="#000000" transform="translate(30,0)"/>
<path d="M0,0 L10,0 L8,6 L1,14 L-16,14 L-13,12 L-4,6 Z " fill="#000000" transform="translate(192,0)"/>
<path d="M0,0 L3,0 L3,14 L-6,14 Z " fill="#000000" transform="translate(211,0)"/>
</svg>
