<?xml version="1.0" encoding="UTF-8"?>
<!-- Generator: visioncortex VTracer 0.6.12 -->
<svg version="1.1" xmlns="http://www.w3.org/2000/svg" width="222" height="143">
<path d="M0,0 L33,0 L31,2 L21,7 L14,13 L8,23 L6,32 L5,143 L0,143 Z " fill="#000000" transform="translate(0,0)"/>
<path d="M0,0 L34,0 L34,143 L29,143 L28,34 L25,22 L19,13 L11,6 L3,2 Z " fill="#000000" transform="translate(188,0)"/>
<path d="M0,0 L133,0 L145,3 L156,11 L162,20 L165,32 L165,138 L155,138 L154,28 L149,18 L140,12 L133,10 L-1,10 L-11,14 L-16,19 L-20,25 L-21,28 L-22,138 L-31,138 L-32,133 L-32,80 L-31,26 L-27,17 L-20,9 L-12,3 Z " fill="#000000" transform="translate(44,5)"/>
<path d="M0,0 L113,1 L123,6 L128,14 L129,17 L129,123 L125,123 L125,117 L-33,117 L-33,123 L-36,123 L-36,16 L-33,9 L-26,3 L-21,1 Z M57,13 L45,29 L41,34 L42,37 L65,53 L85,67 L94,73 L92,60 L87,51 L77,38 L66,24 L58,13 Z M10,21 L6,26 L7,29 L43,53 L63,67 L82,80 L98,91 L103,95 L105,95 L109,90 L107,86 L86,72 L69,60 L47,45 L33,35 L13,21 Z M28,49 L20,60 L16,70 L16,84 L20,94 L27,101 L38,106 L42,107 L63,107 L75,102 L83,96 L88,90 L77,81 L62,71 L42,57 L30,49 Z " fill="#000000" transform="translate(64,20)"/>
<path d="M0,0 L1,0 L2,15 L5,21 L5,23 L9,25 L19,30 L26,32 L26,34 L24,35 L17,35 L6,32 L-2,26 L-6,18 L-6,9 L-3,3 Z " fill="#000000" transform="translate(94,85)"/>
</svg>
