<svg xmlns="http://www.w3.org/2000/svg" viewBox="0 0 145 149">
  <path d="M 62,3 L61,4 L60,5 L61,6 L60,7 L60,8 L61,9 L61,10 L61,11 L62,12 L62,13 L62,14 L62,15 L62,16 L62,17 L62,18 L62,19 L62,20 L62,21 L62,22 L62,23 L62,24 L62,25 L62,26 L62,27 L62,28 L62,29 L62,30 L62,31 L62,32 L62,33 L62,34 L62,35 L62,36 L62,37 L62,38 L62,39 L62,40 L62,41 L62,42 L62,43 L62,44 L62,45 L62,46 L62,47 L62,48 L62,49 L62,50 L62,51 L62,52 L62,53 L62,54 L61,55 L61,56 L61,57 L61,58 L61,59 L60,60 L60,61 L59,62 L58,63 L57,64 L56,64 L55,65 L54,66 L53,66 L52,67 L51,68 L50,68 L49,69 L48,70 L47,71 L46,72 L45,73 L45,74 L44,75 L44,76 L43,77 L43,78 L43,79 L43,80 L43,81 L43,82 L43,83 L43,84 L43,85 L43,86 L43,87 L43,88 L43,89 L43,90 L43,91 L43,92 L43,93 L43,94 L43,95 L43,96 L43,97 L43,98 L43,99 L43,100 L43,101 L43,102 L43,103 L43,104 L43,105 L43,106 L43,107 L43,108 L43,109 L43,110 L43,111 L43,112 L43,113 L43,114 L43,115 L43,116 L43,117 L43,118 L43,119 L43,120 L43,121 L43,122 L43,123 L43,124 L43,125 L43,126 L43,127 L43,128 L43,129 L43,130 L43,131 L43,132 L43,133 L43,134 L43,135 L43,136 L43,137 L43,138 L43,139 L43,140 L43,141 L44,142 L45,143 L46,143 L47,144 L48,144 L49,144 L50,144 L51,144 L52,144 L53,144 L54,144 L55,144 L56,144 L57,144 L58,144 L59,144 L60,144 L61,144 L62,144 L63,144 L64,144 L65,144 L66,144 L67,144 L68,144 L69,144 L70,144 L71,144 L72,144 L73,144 L74,144 L75,144 L76,144 L77,144 L78,144 L79,144 L80,144 L81,144 L82,144 L83,144 L84,144 L85,144 L86,144 L87,144 L88,144 L89,144 L90,144 L91,144 L92,144 L93,144 L94,144 L95,144 L96,144 L97,144 L98,144 L99,143 L100,143 L100,142 L101,141 L101,140 L101,139 L101,138 L101,137 L101,136 L101,135 L101,134 L101,133 L101,132 L101,131 L100,130 L101,129 L101,128 L101,127 L101,126 L101,125 L101,124 L101,123 L101,122 L101,121 L101,120 L101,119 L101,118 L101,117 L101,116 L101,115 L101,114 L101,113 L101,112 L101,111 L101,110 L101,109 L101,108 L101,107 L101,106 L101,105 L100,104 L100,103 L100,102 L101,101 L101,100 L101,99 L101,98 L101,97 L101,96 L100,95 L100,94 L100,93 L100,92 L100,91 L100,90 L100,89 L100,88 L100,87 L100,86 L100,85 L100,84 L100,83 L100,82 L100,81 L100,80 L100,79 L100,78 L100,77 L99,76 L99,75 L98,74 L98,73 L97,72 L96,71 L95,70 L94,69 L93,68 L92,68 L91,67 L90,67 L89,66 L88,65 L87,65 L86,64 L85,63 L84,62 L83,61 L82,60 L82,59 L81,58 L81,57 L81,56 L81,55 L81,54 L81,53 L81,52 L81,51 L81,50 L81,49 L81,48 L81,47 L81,46 L81,45 L81,44 L81,43 L80,42 L80,41 L80,40 L80,39 L80,38 L81,37 L80,36 L80,35 L80,34 L80,33 L80,32 L80,31 L80,30 L80,29 L80,28 L80,27 L80,26 L80,25 L80,24 L80,23 L80,22 L80,21 L80,20 L80,19 L80,18 L80,17 L80,16 L80,15 L80,14 L80,13 L80,12 L80,11 L80,10 L81,9 L81,8 L81,7 L81,6 L81,5 L80,4 L80,3 L79,3 L78,3 L77,3 L76,3 L75,3 L74,3 L73,3 L72,3 L71,3 L70,3 L69,3 L68,3 L67,3 L66,3 L65,3 L64,3 L63,3 Z" fill="black" fill-rule="evenodd"/>
</svg>