<svg xmlns="http://www.w3.org/2000/svg" viewBox="0 0 150 137"><path d="M 75,65 L68,76 L67,82 L71,83 L76,78 L80,83 L85,82 L83,74 Z M 86,50 L84,54 L87,64 L95,70 L107,69 L114,61 L112,51 L106,46 L95,45 Z M 50,45 L41,49 L38,54 L38,61 L44,69 L54,71 L65,65 L68,55 L63,48 L56,45 Z M 0,0 L0,136 L149,136 L149,0 L78,0 L86,0 L96,3 L106,8 L119,20 L127,37 L128,53 L126,61 L129,66 L126,74 L120,79 L102,83 L91,101 L87,100 L87,95 L82,94 L80,95 L78,102 L73,100 L72,95 L66,95 L66,100 L61,101 L59,95 L55,93 L54,87 L50,83 L33,80 L28,77 L23,70 L23,65 L26,61 L23,52 L23,41 L29,23 L44,8 L60,1 L72,0 Z M 40,86 L43,84 L49,87 L55,108 L59,109 L59,105 L64,104 L67,111 L72,111 L74,105 L78,105 L80,111 L87,110 L87,105 L89,103 L93,104 L94,109 L96,109 L100,104 L103,88 L107,84 L111,84 L112,91 L108,109 L98,122 L85,128 L69,128 L57,123 L47,113 L43,104 Z" fill="black" fill-rule="evenodd"/></svg>