<svg xmlns="http://www.w3.org/2000/svg" viewBox="0 0 147 137"><path d="M 0,0 L0,92 L70,93 L70,99 L68,101 L0,100 L0,136 L23,136 L22,120 L24,116 L120,116 L121,136 L146,136 L146,101 L73,101 L71,94 L72,92 L146,92 L146,0 Z M 104,108 L117,107 L122,113 L107,114 Z M 22,113 L27,107 L61,107 L66,111 L78,111 L80,107 L101,108 L99,114 L44,114 L42,110 L38,110 L36,115 L24,115 Z M 70,106 L77,105 L78,107 L76,109 Z M 62,108 L64,105 L68,106 L64,110 Z M 56,2 L87,1 L90,4 L89,26 L116,26 L118,28 L118,56 L116,58 L90,58 L90,80 L88,82 L57,82 L55,80 L55,58 L29,58 L27,56 L27,28 L29,26 L55,26 Z" fill="black" fill-rule="evenodd"/></svg>