<svg xmlns="http://www.w3.org/2000/svg" viewBox="0 0 145 153"><path d="M 34,143 L50,144 L53,140 L93,140 L96,144 L111,144 L113,139 L34,139 Z M 40,84 L40,115 L42,116 L106,115 L105,83 L43,82 Z M 18,64 L18,132 L20,134 L127,134 L129,124 L128,64 Z M 34,79 L37,77 L110,77 L113,80 L112,121 L35,121 Z M 64,70 L66,68 L79,68 L81,71 L79,73 L67,73 Z M 18,48 L18,59 L128,59 L128,49 L123,45 L21,45 Z M 67,52 L79,51 L80,53 L70,55 Z M 106,52 L108,50 L116,51 L114,54 Z M 108,39 L109,42 L118,42 L117,39 Z M 99,6 L97,7 L98,11 L93,20 L93,26 L98,34 L97,42 L103,37 L103,33 L98,24 L102,14 L102,9 Z M 82,6 L80,6 L80,13 L75,21 L75,25 L81,34 L80,42 L85,37 L85,32 L80,23 L85,12 Z M 62,6 L62,13 L57,24 L63,33 L61,41 L64,42 L68,36 L63,25 L67,10 Z M 47,6 L45,6 L45,12 L40,21 L40,25 L46,35 L44,39 L45,42 L50,36 L50,32 L45,24 L50,12 Z" fill="black" fill-rule="evenodd"/></svg>