<svg xmlns="http://www.w3.org/2000/svg" viewBox="0 0 142 152"><path d="M 92,124 L91,140 L93,141 L94,125 Z M 51,124 L50,140 L53,141 L54,126 Z M 0,0 L0,151 L141,151 L141,0 Z M 18,120 L20,118 L124,119 L124,141 L115,147 L26,146 L19,138 Z M 11,109 L13,107 L129,107 L132,112 L129,115 L13,115 Z M 70,6 L75,6 L77,8 L77,18 L84,13 L89,16 L89,19 L77,29 L77,43 L91,36 L92,24 L96,19 L101,22 L101,31 L110,26 L116,30 L114,34 L105,38 L115,44 L111,49 L95,44 L82,51 L97,59 L112,54 L115,60 L106,64 L116,70 L112,76 L109,76 L101,71 L101,81 L95,83 L92,77 L92,68 L78,59 L77,75 L90,85 L86,90 L77,85 L76,96 L68,95 L68,85 L61,89 L55,85 L68,74 L68,60 L53,68 L52,80 L50,82 L44,81 L44,71 L35,76 L29,71 L31,68 L39,64 L30,60 L30,57 L33,54 L49,59 L63,51 L50,44 L33,49 L30,44 L40,38 L29,32 L30,29 L35,26 L44,31 L44,21 L49,19 L53,24 L53,35 L68,43 L68,28 L60,23 L55,17 L59,13 L68,17 L68,8 Z" fill="black" fill-rule="evenodd"/></svg>