<svg xmlns="http://www.w3.org/2000/svg" viewBox="0 0 142 154"><path d="M 91,95 L91,112 L94,112 L94,95 Z M 50,95 L49,112 L52,113 L53,96 Z M 50,37 L61,40 L59,38 Z M 94,24 L81,34 L79,40 Z M 0,0 L0,153 L141,153 L141,0 Z M 12,136 L46,135 L46,123 L48,121 L53,122 L53,135 L90,135 L90,123 L95,121 L97,123 L97,135 L130,135 L132,138 L130,141 L14,141 Z M 18,90 L124,89 L123,113 L115,119 L31,119 L24,117 L19,111 Z M 11,79 L13,77 L65,76 L129,77 L132,82 L129,85 L17,86 L11,83 Z M 56,5 L69,14 L71,18 L73,38 L73,30 L81,20 L91,16 L106,17 L101,34 L93,42 L89,44 L78,43 L76,45 L77,63 L75,72 L63,71 L68,50 L66,44 L64,43 L55,48 L48,47 L34,35 L35,33 L44,30 L57,29 L62,31 L68,40 L67,25 L58,20 L55,14 Z" fill="black" fill-rule="evenodd"/></svg>