<svg xmlns="http://www.w3.org/2000/svg" viewBox="0 0 145 137"><path d="M 92,59 L63,65 L51,74 L46,83 L47,105 L71,78 L73,80 L56,104 L76,102 L88,94 L94,82 Z M 126,56 L103,66 L105,72 L120,95 L103,104 L101,94 L98,93 L74,118 L90,136 L98,128 L123,118 L136,104 L140,90 L139,79 Z M 27,49 L16,64 L6,83 L4,97 L7,108 L17,119 L27,124 L39,127 L70,130 L71,120 L69,110 L38,108 L22,103 L26,94 L49,64 L49,60 L42,53 L36,50 Z M 29,61 L36,60 L38,64 L33,66 Z M 34,39 L34,41 L45,48 L57,52 L74,17 L78,14 L93,40 L87,45 L87,47 L115,57 L124,30 L121,29 L115,32 L101,13 L95,8 L88,5 L75,4 L58,11 L46,23 Z" fill="black" fill-rule="evenodd"/></svg>