<svg xmlns="http://www.w3.org/2000/svg" viewBox="0 0 148 155"><path d="M 68,142 L66,144 L66,149 L72,154 L78,154 L74,153 L68,147 Z M 0,115 L0,154 L64,154 L61,149 L61,141 L78,119 L95,142 L95,149 L91,154 L147,154 L147,116 Z M 57,56 L53,60 L51,66 L52,76 L55,81 L65,88 L74,90 L82,89 L67,83 L60,77 L57,71 Z M 0,0 L0,107 L147,107 L147,0 Z M 42,60 L47,49 L56,39 L99,68 L115,81 L106,90 L93,97 L65,97 L54,92 L44,81 L42,75 Z M 32,17 L37,11 L39,11 L137,79 L130,86 L34,20 Z M 84,3 L115,43 L120,54 L120,64 L67,26 Z" fill="black" fill-rule="evenodd"/></svg>