<svg xmlns="http://www.w3.org/2000/svg" viewBox="0 0 1000 1000">
  <path d="M 90.0,10.0 L 10.0,10.0 L 10.0,90.0 L 10.0,910.0 L 10.0,990.0 L 90.0,990.0 L 910.0,990.0 L 990.0,990.0 L 990.0,910.0 L 990.0,90.0 L 990.0,10.0 L 910.0,10.0 L 90.0,10.0 Z M 130,65 L 870,65 Q 935,65 935,130 L 935,870 Q 935,935 870,935 L 130,935 Q 65,935 65,870 L 65,130 Q 65,65 130,65 Z M 160.0,105.0 L 105.0,105.0 L 105.0,160.0 L 105.0,840.0 L 105.0,895.0 L 160.0,895.0 L 840.0,895.0 L 895.0,895.0 L 895.0,840.0 L 895.0,160.0 L 895.0,105.0 L 840.0,105.0 L 160.0,105.0 Z M 190,145 L 810,145 Q 855,145 855,190 L 855,810 Q 855,855 810,855 L 190,855 Q 145,855 145,810 L 145,190 Q 145,145 190,145 Z M 525.7 638.2 L 487.1 638.2 L 455.0 663.9 L 448.6 689.6 L 467.9 721.8 L 506.4 734.6 L 551.4 702.5 L 551.4 663.9 Z M 493.6 355.4 L 467.9 361.8 L 442.1 406.8 L 474.3 593.2 L 512.9 612.5 L 538.6 573.9 L 557.9 381.1 L 538.6 361.8 Z M 474.3 175.4 L 146.4 618.9 L 140.0 824.6 L 860.0 824.6 L 860.0 625.4 L 564.3 207.5 L 525.7 175.4 Z M 146.4 734.6 L 461.4 297.5 L 506.4 252.5 L 853.6 728.2 L 853.6 747.5 L 834.3 766.8 L 165.7 766.8 Z" fill="black" fill-rule="nonzero"/>
</svg>