<svg xmlns="http://www.w3.org/2000/svg" viewBox="0 0 1000 1000">
  <path d="M 90.0,10.0 L 10.0,10.0 L 10.0,90.0 L 10.0,910.0 L 10.0,990.0 L 90.0,990.0 L 910.0,990.0 L 990.0,990.0 L 990.0,910.0 L 990.0,90.0 L 990.0,10.0 L 910.0,10.0 L 90.0,10.0 Z M 150,90 L 850,90 Q 910,90 910,150 L 910,850 Q 910,910 850,910 L 150,910 Q 90,910 90,850 L 90,150 Q 90,90 150,90 Z M 448.9 140.0 L 438.7 150.2 L 448.9 186.0 L 443.8 426.0 L 423.4 451.5 L 387.7 471.9 L 351.9 517.9 L 351.9 844.7 L 372.3 860.0 L 632.8 860.0 L 648.1 844.7 L 643.0 517.9 L 632.8 497.4 L 607.2 471.9 L 576.6 456.6 L 546.0 420.9 L 540.9 140.0 Z" fill="black" fill-rule="nonzero"/>
</svg>