<svg xmlns="http://www.w3.org/2000/svg" viewBox="0 0 1000 1000">
  <path d="M 90.0,10.0 L 10.0,10.0 L 10.0,90.0 L 10.0,910.0 L 10.0,990.0 L 90.0,990.0 L 910.0,990.0 L 990.0,990.0 L 990.0,910.0 L 990.0,90.0 L 990.0,10.0 L 910.0,10.0 L 90.0,10.0 Z M 150,90 L 850,90 Q 910,90 910,150 L 910,850 Q 910,910 850,910 L 150,910 Q 90,910 90,850 L 90,150 Q 90,90 150,90 Z M 287.5 535.0 L 352.5 825.0 L 367.5 840.0 L 452.5 860.0 L 542.5 860.0 L 642.5 835.0 L 697.5 570.0 L 712.5 550.0 L 707.5 530.0 L 632.5 510.0 L 417.5 505.0 L 332.5 515.0 Z M 317.5 585.0 L 347.5 580.0 L 412.5 595.0 L 597.5 595.0 L 667.5 580.0 L 682.5 585.0 L 647.5 605.0 L 547.5 620.0 L 407.5 615.0 Z M 317.5 550.0 L 322.5 535.0 L 407.5 520.0 L 582.5 520.0 L 652.5 530.0 L 682.5 545.0 L 637.5 565.0 L 517.5 575.0 L 392.5 570.0 Z M 497.5 355.0 L 462.5 415.0 L 457.5 455.0 L 487.5 480.0 L 512.5 480.0 L 542.5 455.0 L 542.5 425.0 Z M 327.5 150.0 L 332.5 260.0 L 447.5 265.0 L 457.5 330.0 L 547.5 325.0 L 552.5 265.0 L 657.5 265.0 L 667.5 255.0 L 667.5 150.0 L 657.5 140.0 L 342.5 140.0 Z" fill="black" fill-rule="nonzero"/>
</svg>