<svg xmlns="http://www.w3.org/2000/svg" viewBox="0 0 1000 1000">
  <path d="M 90.0,10.0 L 10.0,10.0 L 10.0,90.0 L 10.0,910.0 L 10.0,990.0 L 90.0,990.0 L 910.0,990.0 L 990.0,990.0 L 990.0,910.0 L 990.0,90.0 L 990.0,10.0 L 910.0,10.0 L 90.0,10.0 Z M 150,90 L 850,90 Q 910,90 910,150 L 910,850 Q 910,910 850,910 L 150,910 Q 90,910 90,850 L 90,150 Q 90,90 150,90 Z M 502.4 485.5 L 468.6 538.7 L 463.8 567.7 L 483.1 572.5 L 507.2 548.3 L 526.6 572.5 L 550.7 567.7 L 541.1 529.0 Z M 555.6 413.0 L 545.9 432.3 L 560.4 480.7 L 599.1 509.7 L 657.0 504.8 L 690.9 466.2 L 681.2 417.9 L 652.2 393.7 L 599.1 388.9 Z M 381.6 388.9 L 338.1 408.2 L 323.6 432.3 L 323.6 466.2 L 352.6 504.8 L 400.9 514.5 L 454.1 485.5 L 468.6 437.2 L 444.4 403.4 L 410.6 388.9 Z M 140.0 171.4 L 140.0 828.6 L 860.0 828.6 L 860.0 171.4 L 516.9 171.4 L 555.6 171.4 L 603.9 185.9 L 652.2 210.1 L 715.0 268.1 L 753.7 350.2 L 758.5 427.5 L 748.9 466.2 L 763.4 490.3 L 748.9 529.0 L 719.9 553.2 L 632.9 572.5 L 579.7 659.5 L 560.4 654.6 L 560.4 630.5 L 536.2 625.6 L 526.6 630.5 L 516.9 664.3 L 492.8 654.6 L 487.9 630.5 L 458.9 630.5 L 458.9 654.6 L 434.8 659.5 L 425.1 630.5 L 405.8 620.8 L 400.9 591.8 L 381.6 572.5 L 299.5 558.0 L 275.3 543.5 L 251.1 509.7 L 251.1 485.5 L 265.6 466.2 L 251.1 422.7 L 251.1 369.5 L 280.1 282.6 L 352.6 210.1 L 429.9 176.2 L 487.9 171.4 Z M 333.3 587.0 L 347.8 577.3 L 376.8 591.8 L 405.8 693.3 L 425.1 698.1 L 425.1 678.8 L 449.3 674.0 L 463.8 707.8 L 487.9 707.8 L 497.6 678.8 L 516.9 678.8 L 526.6 707.8 L 560.4 703.0 L 560.4 678.8 L 570.1 669.1 L 589.4 674.0 L 594.2 698.1 L 603.9 698.1 L 623.2 674.0 L 637.7 596.6 L 657.0 577.3 L 676.4 577.3 L 681.2 611.1 L 661.9 698.1 L 613.6 760.9 L 550.7 789.9 L 473.4 789.9 L 415.4 765.8 L 367.1 717.4 L 347.8 674.0 Z" fill="black" fill-rule="nonzero"/>
</svg>