<svg xmlns="http://www.w3.org/2000/svg" viewBox="0 0 1000 1000">
  <path d="M 90.0,10.0 L 10.0,10.0 L 10.0,90.0 L 10.0,910.0 L 10.0,990.0 L 90.0,990.0 L 910.0,990.0 L 990.0,990.0 L 990.0,910.0 L 990.0,90.0 L 990.0,10.0 L 910.0,10.0 L 90.0,10.0 Z M 150,90 L 850,90 Q 910,90 910,150 L 910,850 Q 910,910 850,910 L 150,910 Q 90,910 90,850 L 90,150 Q 90,90 150,90 Z M 140.0 164.7 L 140.0 618.4 L 485.2 623.3 L 485.2 652.9 L 475.3 662.7 L 140.0 657.8 L 140.0 835.3 L 253.4 835.3 L 248.5 756.4 L 258.4 736.7 L 731.8 736.7 L 736.7 835.3 L 860.0 835.3 L 860.0 662.7 L 500.0 662.7 L 490.1 628.2 L 495.1 618.4 L 860.0 618.4 L 860.0 164.7 Z M 652.9 697.3 L 717.0 692.3 L 736.7 707.1 L 741.6 721.9 L 667.7 726.8 Z M 248.5 721.9 L 273.2 692.3 L 440.8 692.3 L 465.5 712.1 L 524.7 712.1 L 534.5 692.3 L 638.1 697.3 L 638.1 717.0 L 628.2 726.8 L 357.0 726.8 L 347.1 707.1 L 327.4 707.1 L 327.4 721.9 L 317.5 731.8 L 258.4 731.8 Z M 485.2 687.4 L 519.7 682.5 L 524.7 692.3 L 514.8 702.2 Z M 445.8 697.3 L 455.6 682.5 L 475.3 687.4 L 455.6 707.1 Z M 416.2 174.5 L 569.0 169.6 L 583.8 184.4 L 578.9 292.9 L 712.1 292.9 L 721.9 302.7 L 721.9 440.8 L 712.1 450.7 L 583.8 450.7 L 583.8 559.2 L 574.0 569.0 L 421.1 569.0 L 411.2 559.2 L 411.2 450.7 L 283.0 450.7 L 273.2 440.8 L 273.2 302.7 L 283.0 292.9 L 411.2 292.9 Z" fill="black" fill-rule="nonzero"/>
</svg>