<svg xmlns="http://www.w3.org/2000/svg" viewBox="0 0 1000 1000">
  <path d="M 90.0,10.0 L 10.0,10.0 L 10.0,90.0 L 10.0,910.0 L 10.0,990.0 L 90.0,990.0 L 910.0,990.0 L 990.0,990.0 L 990.0,910.0 L 990.0,90.0 L 990.0,10.0 L 910.0,10.0 L 90.0,10.0 Z M 150,90 L 850,90 Q 910,90 910,150 L 910,850 Q 910,910 850,910 L 150,910 Q 90,910 90,850 L 90,150 Q 90,90 150,90 Z M 602.5 731.3 L 597.7 807.5 L 607.3 812.3 L 612.1 736.0 Z M 407.0 731.3 L 402.3 807.5 L 416.6 812.3 L 421.3 740.8 L 416.6 731.3 Z M 163.8 140.0 L 163.8 860.0 L 836.2 860.0 L 836.2 140.0 Z M 249.7 712.2 L 259.2 702.6 L 755.1 707.4 L 755.1 812.3 L 736.0 831.4 L 712.2 840.9 L 287.8 836.2 L 259.2 812.3 Z M 216.3 659.7 L 225.8 650.2 L 778.9 650.2 L 793.2 674.0 L 778.9 688.3 L 225.8 688.3 L 216.3 678.8 Z M 497.6 168.6 L 521.5 168.6 L 531.0 178.1 L 531.0 225.8 L 564.4 202.0 L 588.2 216.3 L 588.2 230.6 L 531.0 278.3 L 531.0 345.0 L 597.7 311.7 L 602.5 254.4 L 621.6 230.6 L 645.4 244.9 L 645.4 287.8 L 688.3 264.0 L 697.9 264.0 L 717.0 283.0 L 707.4 302.1 L 664.5 321.2 L 712.2 349.8 L 693.1 373.6 L 616.8 349.8 L 554.8 383.2 L 626.4 421.3 L 697.9 397.5 L 712.2 426.1 L 669.3 445.2 L 717.0 473.8 L 712.2 488.1 L 697.9 502.4 L 683.6 502.4 L 645.4 478.5 L 645.4 526.2 L 616.8 535.8 L 602.5 507.2 L 602.5 464.2 L 535.8 421.3 L 531.0 497.6 L 593.0 545.3 L 573.9 569.1 L 531.0 545.3 L 526.2 597.7 L 488.1 593.0 L 488.1 545.3 L 454.7 564.4 L 445.2 564.4 L 426.1 545.3 L 488.1 492.8 L 488.1 426.1 L 430.9 449.9 L 416.6 464.2 L 411.8 521.5 L 402.3 531.0 L 373.6 526.2 L 373.6 478.5 L 330.7 502.4 L 321.2 502.4 L 302.1 478.5 L 311.7 464.2 L 349.8 445.2 L 306.9 426.1 L 306.9 411.8 L 321.2 397.5 L 397.5 421.3 L 464.2 383.2 L 402.3 349.8 L 321.2 373.6 L 306.9 349.8 L 354.6 321.2 L 311.7 302.1 L 302.1 292.6 L 306.9 278.3 L 330.7 264.0 L 373.6 287.8 L 373.6 240.1 L 397.5 230.6 L 416.6 254.4 L 416.6 306.9 L 488.1 345.0 L 488.1 273.5 L 449.9 249.7 L 426.1 221.1 L 445.2 202.0 L 488.1 221.1 L 488.1 178.1 Z" fill="black" fill-rule="nonzero"/>
</svg>