<svg xmlns="http://www.w3.org/2000/svg" viewBox="0 0 1000 1000">
  <path d="M 90.0,10.0 L 10.0,10.0 L 10.0,90.0 L 10.0,910.0 L 10.0,990.0 L 90.0,990.0 L 910.0,990.0 L 990.0,990.0 L 990.0,910.0 L 990.0,90.0 L 990.0,10.0 L 910.0,10.0 L 90.0,10.0 Z M 150,90 L 850,90 Q 910,90 910,150 L 910,850 Q 910,910 850,910 L 150,910 Q 90,910 90,850 L 90,150 Q 90,90 150,90 Z M 293.9 854.8 L 377.4 860.0 L 393.0 839.1 L 601.7 839.1 L 617.4 860.0 L 695.7 860.0 L 706.1 833.9 L 293.9 833.9 Z M 325.2 547.0 L 325.2 708.7 L 335.7 713.9 L 669.6 708.7 L 664.3 541.7 L 340.9 536.5 Z M 210.4 442.6 L 210.4 797.4 L 220.9 807.8 L 779.1 807.8 L 789.6 755.7 L 784.3 442.6 Z M 293.9 520.9 L 309.6 510.4 L 690.4 510.4 L 706.1 526.1 L 700.9 740.0 L 299.1 740.0 Z M 450.4 473.9 L 460.9 463.5 L 528.7 463.5 L 539.1 479.1 L 528.7 489.6 L 466.1 489.6 Z M 210.4 359.1 L 210.4 416.5 L 784.3 416.5 L 784.3 364.3 L 758.3 343.5 L 226.1 343.5 Z M 466.1 380.0 L 528.7 374.8 L 533.9 385.2 L 481.7 395.7 Z M 669.6 380.0 L 680.0 369.6 L 721.7 374.8 L 711.3 390.4 Z M 680.0 312.2 L 685.2 327.8 L 732.2 327.8 L 727.0 312.2 Z M 633.0 140.0 L 622.6 145.2 L 627.8 166.1 L 601.7 213.0 L 601.7 244.3 L 627.8 286.1 L 622.6 327.8 L 653.9 301.7 L 653.9 280.9 L 627.8 233.9 L 648.7 181.7 L 648.7 155.7 Z M 544.3 140.0 L 533.9 140.0 L 533.9 176.5 L 507.8 218.3 L 507.8 239.1 L 539.1 286.1 L 533.9 327.8 L 560.0 301.7 L 560.0 275.7 L 533.9 228.7 L 560.0 171.3 Z M 440.0 140.0 L 440.0 176.5 L 413.9 233.9 L 445.2 280.9 L 434.8 322.6 L 450.4 327.8 L 471.3 296.5 L 445.2 239.1 L 466.1 160.9 Z M 361.7 140.0 L 351.3 140.0 L 351.3 171.3 L 325.2 218.3 L 325.2 239.1 L 356.5 291.3 L 346.1 312.2 L 351.3 327.8 L 377.4 296.5 L 377.4 275.7 L 351.3 233.9 L 377.4 171.3 Z" fill="black" fill-rule="nonzero"/>
</svg>