<svg xmlns="http://www.w3.org/2000/svg" viewBox="0 0 1000 1000">
  <path d="M 90.0,10.0 L 10.0,10.0 L 10.0,90.0 L 10.0,910.0 L 10.0,990.0 L 90.0,990.0 L 910.0,990.0 L 990.0,990.0 L 990.0,910.0 L 990.0,90.0 L 990.0,10.0 L 910.0,10.0 L 90.0,10.0 Z M 150,90 L 850,90 Q 910,90 910,150 L 910,850 Q 910,910 850,910 L 150,910 Q 90,910 90,850 L 90,150 Q 90,90 150,90 Z M 802.2 423.8 L 744.4 429.1 L 665.5 455.3 L 602.5 492.1 L 549.9 549.9 L 518.4 634.0 L 528.9 739.1 L 644.5 586.7 L 670.8 565.7 L 686.6 576.2 L 607.7 697.1 L 486.9 849.5 L 507.9 860.0 L 592.0 749.6 L 681.3 723.4 L 760.1 655.0 L 796.9 560.4 Z M 197.8 423.8 L 197.8 539.4 L 213.6 602.5 L 245.1 660.3 L 302.9 712.8 L 371.2 744.4 L 429.1 754.9 L 329.2 592.0 L 334.5 581.5 L 350.2 581.5 L 471.1 744.4 L 481.6 718.1 L 481.6 634.0 L 434.3 534.2 L 350.2 465.8 L 255.6 429.1 Z M 497.4 140.0 L 381.8 313.4 L 366.0 360.7 L 366.0 418.5 L 486.9 523.6 L 481.6 360.7 L 502.6 345.0 L 518.4 360.7 L 518.4 528.9 L 570.9 471.1 L 623.5 434.3 L 634.0 413.3 L 634.0 366.0 L 607.7 297.7 Z" fill="black" fill-rule="nonzero"/>
</svg>