<svg xmlns="http://www.w3.org/2000/svg" viewBox="0 0 1000 1000">
  <path d="M 90.0,10.0 L 10.0,10.0 L 10.0,90.0 L 10.0,910.0 L 10.0,990.0 L 90.0,990.0 L 910.0,990.0 L 990.0,990.0 L 990.0,910.0 L 990.0,90.0 L 990.0,10.0 L 910.0,10.0 L 90.0,10.0 Z M 150,90 L 850,90 Q 910,90 910,150 L 910,850 Q 910,910 850,910 L 150,910 Q 90,910 90,850 L 90,150 Q 90,90 150,90 Z M 598.6 539.5 L 514.8 588.8 L 514.8 717.0 L 504.9 726.8 L 485.2 717.0 L 485.2 598.6 L 401.4 564.1 L 396.4 657.8 L 421.1 697.3 L 490.1 741.6 L 495.1 860.0 L 514.8 855.1 L 514.8 736.7 L 564.1 707.1 L 603.6 657.8 Z M 401.4 440.8 L 401.4 539.5 L 480.3 569.0 L 485.2 475.3 Z M 593.7 416.2 L 514.8 460.5 L 514.8 554.2 L 598.6 514.8 Z M 406.3 307.7 L 406.3 416.2 L 485.2 440.8 L 480.3 347.1 L 416.2 322.5 Z M 583.8 297.8 L 514.8 337.3 L 514.8 426.0 L 588.8 386.6 Z M 583.8 144.9 L 564.1 144.9 L 564.1 278.1 L 583.8 273.2 Z M 460.5 144.9 L 460.5 307.7 L 480.3 317.5 L 480.3 144.9 Z M 416.2 144.9 L 406.3 292.9 L 431.0 297.8 L 431.0 149.9 Z M 529.6 140.0 L 514.8 140.0 L 514.8 307.7 L 534.5 292.9 Z" fill="black" fill-rule="nonzero"/>
</svg>