<svg xmlns="http://www.w3.org/2000/svg" viewBox="0 0 1000 1000">
  <path d="M 90.0,10.0 L 10.0,10.0 L 10.0,90.0 L 10.0,910.0 L 10.0,990.0 L 90.0,990.0 L 910.0,990.0 L 990.0,990.0 L 990.0,910.0 L 990.0,90.0 L 990.0,10.0 L 910.0,10.0 L 90.0,10.0 Z M 150,90 L 850,90 Q 910,90 910,150 L 910,850 Q 910,910 850,910 L 150,910 Q 90,910 90,850 L 90,150 Q 90,90 150,90 Z M 596.5 587.1 L 596.5 667.1 L 610.6 667.1 L 610.6 587.1 Z M 403.5 587.1 L 398.8 667.1 L 412.9 671.8 L 417.6 591.8 Z M 403.5 314.1 L 455.3 328.2 L 445.9 318.8 Z M 610.6 252.9 L 549.4 300.0 L 540.0 328.2 Z M 168.2 140.0 L 168.2 860.0 L 831.8 860.0 L 831.8 140.0 Z M 224.7 780.0 L 384.7 775.3 L 384.7 718.8 L 394.1 709.4 L 417.6 714.1 L 417.6 775.3 L 591.8 775.3 L 591.8 718.8 L 615.3 709.4 L 624.7 718.8 L 624.7 775.3 L 780.0 775.3 L 789.4 789.4 L 780.0 803.5 L 234.1 803.5 Z M 252.9 563.5 L 751.8 558.8 L 747.1 671.8 L 709.4 700.0 L 314.1 700.0 L 281.2 690.6 L 257.6 662.4 Z M 220.0 511.8 L 229.4 502.4 L 474.1 497.6 L 775.3 502.4 L 789.4 525.9 L 775.3 540.0 L 248.2 544.7 L 220.0 530.6 Z M 431.8 163.5 L 492.9 205.9 L 502.4 224.7 L 511.8 318.8 L 511.8 281.2 L 549.4 234.1 L 596.5 215.3 L 667.1 220.0 L 643.5 300.0 L 605.9 337.6 L 587.1 347.1 L 535.3 342.4 L 525.9 351.8 L 530.6 436.5 L 521.2 478.8 L 464.7 474.1 L 488.2 375.3 L 478.8 347.1 L 469.4 342.4 L 427.1 365.9 L 394.1 361.2 L 328.2 304.7 L 332.9 295.3 L 375.3 281.2 L 436.5 276.5 L 460.0 285.9 L 488.2 328.2 L 483.5 257.6 L 441.2 234.1 L 427.1 205.9 Z" fill="black" fill-rule="nonzero"/>
</svg>