<svg xmlns="http://www.w3.org/2000/svg" viewBox="0 0 1000 1000">
  <path d="M 90.0,10.0 L 10.0,10.0 L 10.0,90.0 L 10.0,910.0 L 10.0,990.0 L 90.0,990.0 L 910.0,990.0 L 990.0,990.0 L 990.0,910.0 L 990.0,90.0 L 990.0,10.0 L 910.0,10.0 L 90.0,10.0 Z M 150,90 L 850,90 Q 910,90 910,150 L 910,850 Q 910,910 850,910 L 150,910 Q 90,910 90,850 L 90,150 Q 90,90 150,90 Z M 605.9 441.8 L 452.4 473.5 L 388.8 521.2 L 362.4 568.8 L 367.6 685.3 L 494.7 542.4 L 505.3 552.9 L 415.3 680.0 L 521.2 669.4 L 584.7 627.1 L 616.5 563.5 Z M 785.9 425.9 L 664.1 478.8 L 674.7 510.6 L 754.1 632.4 L 664.1 680.0 L 653.5 627.1 L 637.6 621.8 L 510.6 754.1 L 595.3 849.4 L 637.6 807.1 L 770.0 754.1 L 838.8 680.0 L 860.0 605.9 L 854.7 547.6 Z M 261.8 388.8 L 203.5 468.2 L 150.6 568.8 L 140.0 642.9 L 155.9 701.2 L 208.8 759.4 L 261.8 785.9 L 325.3 801.8 L 489.4 817.6 L 494.7 764.7 L 484.1 711.8 L 320.0 701.2 L 235.3 674.7 L 256.5 627.1 L 378.2 468.2 L 378.2 447.1 L 341.2 410.0 L 309.4 394.1 Z M 272.4 452.4 L 309.4 447.1 L 320.0 468.2 L 293.5 478.8 Z M 298.8 335.9 L 298.8 346.5 L 357.1 383.5 L 420.6 404.7 L 510.6 219.4 L 531.8 203.5 L 611.2 341.2 L 579.4 367.6 L 579.4 378.2 L 727.6 431.2 L 775.3 288.2 L 759.4 282.9 L 727.6 298.8 L 653.5 198.2 L 621.8 171.8 L 584.7 155.9 L 515.9 150.6 L 425.9 187.6 L 362.4 251.2 Z" fill="black" fill-rule="nonzero"/>
</svg>