<svg xmlns="http://www.w3.org/2000/svg" viewBox="0 0 1000 1000">
  <path d="M 90.0,10.0 L 10.0,10.0 L 10.0,90.0 L 10.0,910.0 L 10.0,990.0 L 90.0,990.0 L 910.0,990.0 L 990.0,990.0 L 990.0,910.0 L 990.0,90.0 L 990.0,10.0 L 910.0,10.0 L 90.0,10.0 Z M 150,90 L 850,90 Q 910,90 910,150 L 910,850 Q 910,910 850,910 L 150,910 Q 90,910 90,850 L 90,150 Q 90,90 150,90 Z M 370.2 507.3 L 350.6 526.9 L 335.9 566.1 L 340.8 615.1 L 360.4 659.2 L 433.9 713.1 L 473.1 722.9 L 536.7 718.0 L 448.6 683.7 L 389.8 629.8 L 370.2 575.9 Z M 159.6 140.0 L 159.6 860.0 L 840.4 860.0 L 840.4 140.0 Z M 502.4 174.3 L 571.0 301.6 L 683.7 463.3 L 713.1 536.7 L 713.1 615.1 L 673.9 703.3 L 620.0 752.2 L 546.5 781.6 L 468.2 781.6 L 384.9 747.3 L 326.1 693.5 L 291.8 620.0 L 291.8 536.7 L 306.5 492.7 L 365.3 389.8 L 448.6 282.0 Z" fill="black" fill-rule="nonzero"/>
</svg>