<svg xmlns="http://www.w3.org/2000/svg" viewBox="0 0 1000 1000">
  <path d="M 90.0,10.0 L 10.0,10.0 L 10.0,90.0 L 10.0,910.0 L 10.0,990.0 L 90.0,990.0 L 910.0,990.0 L 990.0,990.0 L 990.0,910.0 L 990.0,90.0 L 990.0,10.0 L 910.0,10.0 L 90.0,10.0 Z M 150,90 L 850,90 Q 910,90 910,150 L 910,850 Q 910,910 850,910 L 150,910 Q 90,910 90,850 L 90,150 Q 90,90 150,90 Z M 369.6 587.9 L 261.9 678.6 L 176.9 695.6 L 154.2 723.9 L 165.5 769.3 L 227.9 797.6 L 284.6 860.0 L 318.6 860.0 L 346.9 837.3 L 358.3 752.3 L 432.0 638.9 Z M 783.5 179.7 L 732.4 151.3 L 664.4 140.0 L 596.4 151.3 L 534.0 185.4 L 483.0 242.0 L 449.0 321.4 L 386.6 531.2 L 392.3 559.5 L 466.0 610.6 L 721.1 497.2 L 789.1 451.8 L 840.2 372.4 L 845.8 293.1 L 823.1 225.0 Z M 698.4 196.7 L 687.1 225.0 L 641.7 225.0 L 607.7 242.0 L 568.0 293.1 L 551.0 293.1 L 534.0 276.1 L 539.7 259.1 L 619.1 191.0 L 687.1 185.4 Z" fill="black" fill-rule="nonzero"/>
</svg>