<svg xmlns="http://www.w3.org/2000/svg" viewBox="0 0 1000 1000">
  <path d="M 90.0,10.0 L 10.0,10.0 L 10.0,90.0 L 10.0,910.0 L 10.0,990.0 L 90.0,990.0 L 910.0,990.0 L 990.0,990.0 L 990.0,910.0 L 990.0,90.0 L 990.0,10.0 L 910.0,10.0 L 90.0,10.0 Z M 150,90 L 850,90 Q 910,90 910,150 L 910,850 Q 910,910 850,910 L 150,910 Q 90,910 90,850 L 90,150 Q 90,90 150,90 Z M 214.4 140.0 L 202.5 151.9 L 202.5 282.8 L 232.2 306.6 L 208.4 378.0 L 202.5 431.6 L 202.5 663.6 L 214.4 788.6 L 196.5 806.4 L 178.7 854.0 L 208.4 860.0 L 232.2 842.1 L 767.8 842.1 L 797.5 860.0 L 821.3 854.0 L 785.6 782.6 L 803.5 556.5 L 791.6 389.9 L 767.8 306.6 L 791.6 282.8 L 791.6 146.0 Z M 267.9 205.5 L 297.7 175.7 L 702.3 175.7 L 726.1 193.6 L 732.1 229.3 L 708.3 259.0 L 648.8 265.0 L 327.4 265.0 L 291.7 259.0 L 267.9 235.2 Z" fill="black" fill-rule="nonzero"/>
</svg>