<svg xmlns="http://www.w3.org/2000/svg" viewBox="0 0 1000 1000">
  <path d="M 90.0,10.0 L 10.0,10.0 L 10.0,90.0 L 10.0,910.0 L 10.0,990.0 L 90.0,990.0 L 910.0,990.0 L 990.0,990.0 L 990.0,910.0 L 990.0,90.0 L 990.0,10.0 L 910.0,10.0 L 90.0,10.0 Z M 150,90 L 850,90 Q 910,90 910,150 L 910,850 Q 910,910 850,910 L 150,910 Q 90,910 90,850 L 90,150 Q 90,90 150,90 Z M 561.8 526.9 L 529.6 564.5 L 701.5 833.1 L 728.4 854.6 L 771.3 849.3 L 798.2 811.6 L 787.5 774.0 Z M 787.5 150.7 L 733.7 150.7 L 642.4 252.8 L 502.7 489.3 L 260.9 784.8 L 250.1 827.8 L 271.6 854.6 L 309.3 860.0 L 352.2 827.8 L 540.3 516.1 L 572.5 483.9 L 631.6 457.0 L 696.1 392.5 L 776.7 247.5 L 798.2 183.0 Z M 201.8 209.9 L 223.3 258.2 L 330.7 419.4 L 357.6 446.3 L 427.5 462.4 L 470.4 494.6 L 491.9 467.8 L 475.8 440.9 L 481.2 344.2 L 325.4 150.7 L 309.3 140.0 L 416.7 301.2 L 416.7 333.4 L 287.8 172.2 L 271.6 166.9 L 389.9 344.2 L 379.1 354.9 L 234.0 188.4 L 352.2 354.9 L 346.9 376.4 L 325.4 365.7 Z" fill="black" fill-rule="nonzero"/>
</svg>