<svg xmlns="http://www.w3.org/2000/svg" viewBox="0 0 1000 1000">
  <path d="M 90.0,10.0 L 10.0,10.0 L 10.0,90.0 L 10.0,910.0 L 10.0,990.0 L 90.0,990.0 L 910.0,990.0 L 990.0,990.0 L 990.0,910.0 L 990.0,90.0 L 990.0,10.0 L 910.0,10.0 L 90.0,10.0 Z M 150,90 L 850,90 Q 910,90 910,150 L 910,850 Q 910,910 850,910 L 150,910 Q 90,910 90,850 L 90,150 Q 90,90 150,90 Z M 474.3 803.9 L 464.9 813.2 L 464.9 836.6 L 493.0 860.0 L 521.0 860.0 L 502.3 855.3 L 474.3 827.3 Z M 156.4 677.7 L 156.4 860.0 L 455.6 860.0 L 441.6 836.6 L 441.6 799.2 L 521.0 696.4 L 600.5 803.9 L 600.5 836.6 L 581.8 860.0 L 843.6 860.0 L 843.6 682.3 Z M 422.9 401.8 L 404.2 420.5 L 394.8 448.6 L 399.5 495.3 L 413.5 518.7 L 460.3 551.4 L 502.3 560.8 L 539.7 556.1 L 469.6 528.1 L 436.9 500.0 L 422.9 471.9 Z M 156.4 140.0 L 156.4 640.3 L 843.6 640.3 L 843.6 140.0 Z M 352.7 420.5 L 376.1 369.1 L 418.2 322.3 L 619.2 457.9 L 694.0 518.7 L 651.9 560.8 L 591.2 593.5 L 460.3 593.5 L 408.8 570.1 L 362.1 518.7 L 352.7 490.6 Z M 306.0 219.5 L 329.4 191.4 L 338.7 191.4 L 796.9 509.4 L 764.2 542.1 L 315.3 233.5 Z M 549.1 154.0 L 694.0 341.0 L 717.4 392.5 L 717.4 439.2 L 469.6 261.6 Z" fill="black" fill-rule="nonzero"/>
</svg>